<?xml version="1.0" encoding="UTF-8"?>
<svg id="Layer_1" data-name="Layer 1" xmlns="http://www.w3.org/2000/svg" viewBox="0 0 352.74 352.74">
  <defs>
    <style>
      .cls-1 {
        stroke: #000;
        stroke-miterlimit: 10;
      }
    </style>
  </defs>
  <path class="cls-1" d="M79.46,181.7c16.03,16.17,15.09,28.52,16.24,43.95,1.15,15.42,16.6,29.64,16.6,29.64-14.94-24.09-11.09-29.82-12.79-46.19-1.7-16.37-20.05-27.4-20.05-27.4Z"/>
  <path class="cls-1" d="M176.37.5C79.24.5.5,79.24.5,176.37s78.74,175.87,175.87,175.87,175.87-78.74,175.87-175.87S273.5.5,176.37.5ZM154.18,280.18s-23.92,1.45-36.47-16.71c-2.81.71-26.03,5.64-36.47-20.98-2.86-7.29-3.91-15.17-3.34-22.98.99-13.55,1.36-42.8-13.37-46.4,0,0,51.74-20.03,77.16,26.95,1.39,2.56,2.47,5.29,3.18,8.12,2.73,10.89,5.97,37.88-23.03,53.33,1.6,1.95,17.44,20.38,38.27,12.67l-5.92,6.01ZM141.44,146.47l-48.98-28.47,23.57-40.71.61-.92c7.35-10.1,17.18-13.09,25.71-12.55,8.53.54,15.73,4.71,18.06,8.57l11.94,20.51-30.92,53.57ZM164.7,69.32c-3.48-5.82-8.3-6.77-10.41-7.35l63.98-.31c6.58-.61,9.26,1.84,11.02,5.51l16.53,28.78,17.14-10.1-27.55,48.37-56.33.31,17.14-10.1-31.53-55.1ZM251.03,270.14c-2.68,5.97-6.24,6.81-10.1,6.43h-33.06l-.31,20.2-27.55-48.37,27.86-48.67v19.9h63.37c6.73-.19,10.41-3.67,11.94-5.2l-32.14,55.71ZM272.46,214.43h-23.88l-30.61-53.27,48.98-28.47,23.57,40.71.31,1.22c10.22,22.77-9.49,39.6-18.37,39.8Z"/>
</svg>