<svg width="470" height="244" viewBox="0 0 470 244" fill="none" xmlns="http://www.w3.org/2000/svg">
<path d="M71.9134 86.8048C65.9518 86.8048 60.7884 85.4828 56.3982 82.8387C52.0081 80.1947 48.6157 76.503 46.2211 71.7636C43.8265 67.0242 42.6292 61.5366 42.6292 55.2507C42.6292 48.9648 43.8265 43.3275 46.2211 38.5632C48.6157 33.7989 52.0081 30.1072 56.3982 27.4631C60.7884 24.8191 65.9518 23.522 71.9134 23.522C75.3057 23.522 78.4736 23.971 81.3921 24.844C84.3105 25.717 86.9296 26.9892 89.2245 28.6604C91.5193 30.3317 93.465 32.3272 95.0115 34.7218C96.558 37.0915 97.6805 39.7854 98.329 42.7787L85.0089 45.5724C84.6098 44.001 84.0361 42.5792 83.2878 41.2821C82.5395 39.985 81.6166 38.8875 80.519 37.9645C79.4215 37.0416 78.1743 36.3432 76.7275 35.8443C75.3057 35.3454 73.7343 35.096 72.0131 35.096C68.6956 35.096 65.9268 35.994 63.7317 37.765C61.5367 39.536 59.8904 41.9306 58.7928 44.9488C57.6953 47.9671 57.1465 51.3844 57.1465 55.2257C57.1465 59.0671 57.6953 62.3847 58.7928 65.4278C59.8904 68.4461 61.5367 70.8656 63.7317 72.6366C65.9268 74.4077 68.6706 75.3056 72.0131 75.3056C73.7592 75.3056 75.3556 75.0562 76.8024 74.5324C78.2491 74.0086 79.5213 73.2852 80.6437 72.3373C81.7662 71.3894 82.6892 70.242 83.4624 68.895C84.2357 67.5481 84.7845 66.0514 85.1586 64.4051L98.4787 67.1989C97.8301 70.267 96.7077 73.0108 95.1611 75.4054C93.6146 77.825 91.669 79.8704 89.3492 81.5666C87.0294 83.2628 84.3853 84.5848 81.4669 85.4828C78.5235 86.4057 75.3307 86.8547 71.9134 86.8547V86.8048Z" fill="#003B5C"/>
<path d="M117.835 15.6149C115.565 15.6149 113.62 14.8417 111.998 13.3201C110.377 11.7736 109.554 9.95264 109.554 7.83241C109.554 5.71217 110.377 3.79148 111.998 2.2699C113.62 0.748319 115.565 0 117.835 0C120.105 0 122.101 0.748319 123.722 2.2699C125.343 3.79148 126.166 5.61239 126.166 7.78252C126.166 9.95264 125.343 11.7736 123.722 13.3201C122.101 14.8666 120.13 15.6149 117.835 15.6149ZM110.701 85.5578V24.2705H124.944V85.5578H110.701Z" fill="#003B5C"/>
<path d="M140.085 85.5577V24.2704H153.904V34.5224H154.553C155.65 30.9803 157.571 28.2365 160.315 26.3158C163.058 24.3951 166.176 23.4473 169.694 23.4473C170.492 23.4473 171.39 23.4722 172.388 23.547C173.36 23.6219 174.208 23.7217 174.907 23.8214V36.917C174.333 36.7424 173.36 36.5678 172.063 36.4181C170.766 36.2685 169.444 36.1936 168.172 36.1936C165.553 36.1936 163.183 36.7673 161.063 37.8898C158.968 39.0123 157.321 40.5838 156.124 42.5793C154.927 44.5748 154.353 46.8696 154.353 49.4638V85.5328H140.11L140.085 85.5577Z" fill="#003B5C"/>
<path d="M196.184 149.165C190.223 149.165 185.059 147.843 180.669 145.199C176.279 142.555 172.887 138.863 170.492 134.123C168.097 129.384 166.9 123.896 166.9 117.611C166.9 111.325 168.097 105.687 170.492 100.923C172.887 96.1587 176.279 92.467 180.669 89.823C185.059 87.1789 190.223 85.8818 196.184 85.8818C199.577 85.8818 202.745 86.3308 205.663 87.2039C208.582 88.0769 211.201 89.3491 213.495 91.0203C215.79 92.6915 217.736 94.687 219.282 97.0817C220.829 99.4513 221.951 102.145 222.6 105.139L209.28 107.932C208.881 106.361 208.307 104.939 207.559 103.642C206.81 102.345 205.888 101.247 204.79 100.324C203.692 99.4015 202.445 98.703 200.999 98.2042C199.577 97.7053 198.005 97.4558 196.284 97.4558C192.967 97.4558 190.198 98.3538 188.003 100.125C185.808 101.896 184.161 104.29 183.064 107.309C181.966 110.327 181.418 113.744 181.418 117.586C181.418 121.427 181.966 124.745 183.064 127.788C184.161 130.806 185.808 133.225 188.003 134.996C190.198 136.768 192.942 137.666 196.284 137.666C198.03 137.666 199.627 137.416 201.073 136.892C202.52 136.368 203.792 135.645 204.915 134.697C206.037 133.749 206.96 132.602 207.733 131.255C208.507 129.908 209.08 128.411 209.43 126.765L222.75 129.559C222.101 132.627 220.979 135.371 219.432 137.765C217.886 140.185 215.94 142.23 213.62 143.926C211.3 145.623 208.656 146.945 205.738 147.843C202.795 148.766 199.602 149.215 196.184 149.215V149.165Z" fill="#003B5C"/>
<path d="M34.8218 89.6236V150.886H21.0028V140.634H20.3543C19.2567 144.176 17.3361 146.92 14.5922 148.816C11.8484 150.736 8.73039 151.684 5.21329 151.684C4.41508 151.684 3.5171 151.659 2.51934 151.584C1.52158 151.51 0.698431 151.41 0 151.31V138.214C0.573711 138.389 1.54653 138.564 2.84361 138.713C4.1407 138.863 5.46273 138.938 6.73487 138.938C9.35399 138.938 11.7237 138.364 13.8439 137.242C15.9641 136.119 17.5855 134.548 18.7828 132.552C19.9801 130.557 20.5538 128.262 20.5538 125.668V89.5986H34.7968L34.8218 89.6236Z" fill="#003B5C"/>
<path d="M172.612 161.213C176.803 161.213 180.495 162.111 183.662 163.907C186.83 165.703 189.275 168.322 190.996 171.764C192.742 175.207 193.59 179.397 193.59 184.286V223.249H179.347V186.481C179.347 182.39 178.275 179.173 176.129 176.828C173.984 174.483 171.066 173.311 167.324 173.311C164.805 173.311 162.56 173.86 160.589 174.957C158.619 176.055 157.072 177.651 155.95 179.771C154.827 181.892 154.278 184.411 154.278 187.329V223.224H139.986V161.936H153.53L153.705 177.052H152.607C154.328 171.714 156.873 167.748 160.215 165.104C163.558 162.46 167.698 161.163 172.612 161.163V161.213Z" fill="#003B5C"/>
<path d="M110.626 243.627V161.961H124.869V243.627H110.626Z" fill="#003B5C"/>
<path d="M78.3989 160.714C82.2653 160.714 85.7574 161.412 88.8754 162.834C91.9934 164.231 94.4379 166.301 96.2089 169.045C97.98 171.789 98.9029 175.156 98.9029 179.197C98.9029 182.665 98.2543 185.533 96.9573 187.803C95.6602 190.073 93.9141 191.869 91.6941 193.241C89.4741 194.588 86.9797 195.61 84.2109 196.309C81.4421 197.007 78.5486 197.506 75.5553 197.781C72.0133 198.18 69.1198 198.529 66.8998 198.828C64.6798 199.128 63.0335 199.602 61.9858 200.25C60.9382 200.899 60.4143 201.921 60.4143 203.318V203.593C60.4143 205.613 60.8135 207.309 61.6117 208.706C62.4099 210.103 63.6072 211.2 65.2036 211.949C66.8 212.697 68.7456 213.071 71.0904 213.071C73.4351 213.071 75.5304 212.697 77.2515 211.974C78.9727 211.25 80.3945 210.302 81.492 209.13C82.5895 207.958 83.3877 206.711 83.9116 205.339L97.1319 208.033C95.9346 211.649 94.0638 214.643 91.5444 216.987C89.0251 219.332 86.0069 221.103 82.5396 222.276C79.0724 223.448 75.256 224.022 71.1652 224.022C68.2717 224.022 65.3533 223.697 62.4348 222.999C59.4914 222.325 56.7975 221.178 54.353 219.582C51.9085 217.985 49.9379 215.815 48.4412 213.121C46.9446 210.427 46.1963 207.01 46.1963 202.919V161.986H59.8406V170.417H60.3894C61.3123 168.696 62.5595 167.1 64.1559 165.628C65.7524 164.156 67.7229 162.959 70.0677 162.061C72.4124 161.163 75.2061 160.714 78.4239 160.714H78.3989ZM74.7322 171.29C71.7639 171.29 69.2196 171.864 67.0993 173.036C64.9541 174.209 63.3078 175.755 62.1105 177.676C60.9132 179.596 60.3395 181.692 60.3395 183.962V191.195C60.8135 190.821 61.6117 190.472 62.7341 190.148C63.8566 189.823 65.0789 189.524 66.4508 189.275C67.8227 189.025 69.1697 188.801 70.5167 188.626C71.8387 188.452 72.9612 188.302 73.8841 188.177C76.0043 187.878 77.925 187.404 79.6461 186.755C81.3673 186.107 82.7143 185.184 83.6871 183.987C84.6599 182.789 85.1338 181.268 85.1338 179.347C85.1338 177.601 84.6848 176.129 83.7868 174.932C82.8889 173.735 81.6666 172.837 80.1201 172.213C78.5736 171.589 76.7776 171.29 74.7821 171.29H74.7322Z" fill="#003B5C"/>
<path d="M332.733 67.3486V149.015H318.49V67.3486H332.733Z" fill="#FF671F"/>
<path d="M364.961 150.263C361.095 150.263 357.603 149.564 354.485 148.143C351.392 146.746 348.922 144.675 347.151 141.932C345.355 139.188 344.457 135.82 344.457 131.779C344.457 128.312 345.106 125.444 346.403 123.174C347.7 120.904 349.446 119.108 351.666 117.736C353.886 116.389 356.38 115.366 359.149 114.668C361.918 113.969 364.811 113.471 367.805 113.196C371.347 112.797 374.24 112.448 376.46 112.148C378.68 111.849 380.327 111.375 381.374 110.727C382.422 110.078 382.946 109.055 382.946 107.659V107.384C382.946 105.364 382.547 103.668 381.748 102.271C380.95 100.874 379.753 99.7763 378.156 99.028C376.56 98.2796 374.614 97.9055 372.27 97.9055C369.925 97.9055 367.83 98.2796 366.109 99.003C364.387 99.7264 362.966 100.674 361.868 101.847C360.771 103.019 359.972 104.266 359.448 105.638L346.228 102.944C347.425 99.3273 349.296 96.334 351.816 93.9893C354.335 91.6446 357.328 89.8735 360.82 88.7012C364.313 87.5288 368.104 86.9551 372.195 86.9551C375.088 86.9551 378.007 87.2794 380.925 87.9778C383.869 88.6513 386.563 89.7987 389.007 91.3951C391.452 92.9915 393.422 95.1616 394.919 97.8556C396.415 100.55 397.164 103.967 397.164 108.058V148.991H383.519V140.56H382.971C382.048 142.281 380.8 143.877 379.229 145.349C377.633 146.821 375.662 148.018 373.317 148.916C370.973 149.814 368.179 150.263 364.961 150.263ZM368.628 139.687C371.596 139.687 374.14 139.113 376.261 137.941C378.406 136.768 380.052 135.222 381.249 133.301C382.447 131.38 383.021 129.285 383.021 127.015V119.781C382.547 120.156 381.748 120.505 380.626 120.829C379.503 121.153 378.281 121.453 376.909 121.702C375.537 121.951 374.19 122.176 372.843 122.351C371.521 122.525 370.374 122.675 369.476 122.8C367.356 123.099 365.435 123.573 363.714 124.221C361.993 124.87 360.646 125.793 359.673 126.99C358.7 128.187 358.226 129.709 358.226 131.63C358.226 133.376 358.675 134.847 359.573 136.045C360.471 137.242 361.693 138.14 363.24 138.764C364.786 139.387 366.582 139.687 368.578 139.687H368.628Z" fill="#FF671F"/>
<path d="M444.657 150.113C441.189 150.113 438.271 149.514 435.951 148.342C433.607 147.144 431.736 145.723 430.364 144.051C428.992 142.38 427.919 140.809 427.196 139.337H426.273V149.04H412.354V67.3486H426.597V97.88H427.196C427.919 96.4083 428.967 94.8369 430.314 93.1656C431.661 91.4944 433.507 90.0227 435.827 88.8004C438.146 87.5782 441.115 86.9546 444.732 86.9546C449.471 86.9546 453.761 88.1519 457.553 90.5715C461.344 92.991 464.387 96.5331 466.632 101.223C468.877 105.912 470 111.674 470 118.459C470 125.244 468.902 130.906 466.707 135.62C464.512 140.335 461.519 143.927 457.702 146.396C453.886 148.866 449.546 150.088 444.682 150.088L444.657 150.113ZM440.815 138.389C443.983 138.389 446.652 137.516 448.822 135.795C450.992 134.074 452.614 131.679 453.711 128.661C454.809 125.643 455.358 122.25 455.358 118.434C455.358 114.617 454.809 111.25 453.736 108.257C452.664 105.288 451.042 102.944 448.897 101.247C446.727 99.5513 444.058 98.7032 440.84 98.7032C437.622 98.7032 435.053 99.5263 432.883 101.173C430.713 102.819 429.092 105.114 427.969 108.057C426.847 111.001 426.298 114.468 426.298 118.434C426.298 122.4 426.847 125.917 427.969 128.91C429.092 131.904 430.738 134.223 432.908 135.895C435.078 137.566 437.722 138.389 440.815 138.389Z" fill="#FF671F"/>
</svg>
