<svg width="250" height="137" viewBox="0 0 250 137" fill="none" xmlns="http://www.w3.org/2000/svg">
<path fill-rule="evenodd" clip-rule="evenodd" d="M84.4052 120.177C84.4052 127.724 78.2869 133.842 70.7396 133.842C63.1923 133.842 57.074 127.724 57.074 120.177C57.074 112.63 63.1923 106.511 70.7396 106.511C78.2869 106.511 84.4052 112.63 84.4052 120.177ZM70.7396 132.235C77.3989 132.235 82.7974 126.836 82.7974 120.177C82.7974 113.517 77.3989 108.119 70.7396 108.119C64.0802 108.119 58.6817 113.517 58.6817 120.177C58.6817 126.836 64.0802 132.235 70.7396 132.235Z" fill="#FF671F"/>
<path fill-rule="evenodd" clip-rule="evenodd" d="M84.4052 122.789C84.4052 128.894 79.4565 133.842 73.3521 133.842C67.2477 133.842 62.299 128.894 62.299 122.789C62.299 116.685 67.2477 111.736 73.3521 111.736C79.4565 111.736 84.4052 116.685 84.4052 122.789ZM73.3521 132.235C78.5686 132.235 82.7974 128.006 82.7974 122.789C82.7974 117.573 78.5686 113.344 73.3521 113.344C68.1356 113.344 63.9068 117.573 63.9068 122.789C63.9068 128.006 68.1356 132.235 73.3521 132.235Z" fill="#FF671F"/>
<path fill-rule="evenodd" clip-rule="evenodd" d="M84.4052 126.206C84.4052 130.423 80.9861 133.842 76.7685 133.842C72.5509 133.842 69.1318 130.423 69.1318 126.206C69.1318 121.988 72.5509 118.569 76.7685 118.569C80.9861 118.569 84.4052 121.988 84.4052 126.206ZM76.7685 132.235C80.0982 132.235 82.7974 129.535 82.7974 126.206C82.7974 122.876 80.0982 120.177 76.7685 120.177C73.4388 120.177 70.7396 122.876 70.7396 126.206C70.7396 129.535 73.4388 132.235 76.7685 132.235Z" fill="#FF671F"/>
<path fill-rule="evenodd" clip-rule="evenodd" d="M136.254 68.127C136.254 105.753 105.753 136.254 68.127 136.254C30.5015 136.254 0 105.753 0 68.127C0 30.5015 30.5015 0 68.127 0C105.753 0 136.254 30.5015 136.254 68.127ZM68.127 134.646C104.865 134.646 134.646 104.865 134.646 68.127C134.646 31.3894 104.865 1.60772 68.127 1.60772C31.3894 1.60772 1.60772 31.3894 1.60772 68.127C1.60772 104.865 31.3894 134.646 68.127 134.646Z" fill="#FF671F"/>
<path fill-rule="evenodd" clip-rule="evenodd" d="M135.048 73.5531C135.048 106.85 108.056 133.842 74.7589 133.842C41.4619 133.842 14.4695 106.85 14.4695 73.5531C14.4695 40.2561 41.4619 13.2637 74.7589 13.2637C108.056 13.2637 135.048 40.2561 135.048 73.5531ZM74.7589 132.235C107.168 132.235 133.441 105.962 133.441 73.5531C133.441 41.1441 107.168 14.8714 74.7589 14.8714C42.3499 14.8714 16.0772 41.1441 16.0772 73.5531C16.0772 105.962 42.3499 132.235 74.7589 132.235Z" fill="#FF671F"/>
<path fill-rule="evenodd" clip-rule="evenodd" d="M250 68.127C250 105.753 219.499 136.254 181.873 136.254C144.247 136.254 113.746 105.753 113.746 68.127C113.746 30.5015 144.247 0 181.873 0C219.499 0 250 30.5015 250 68.127ZM181.873 134.646C218.611 134.646 248.392 104.865 248.392 68.127C248.392 31.3894 218.611 1.60772 181.873 1.60772C145.135 1.60772 115.354 31.3894 115.354 68.127C115.354 104.865 145.135 134.646 181.873 134.646Z" fill="#FF671F"/>
<path fill-rule="evenodd" clip-rule="evenodd" d="M226.286 79.9839C226.286 111.061 201.093 136.254 170.016 136.254C138.939 136.254 113.746 111.061 113.746 79.9839C113.746 48.9068 138.939 23.7138 170.016 23.7138C201.093 23.7138 226.286 48.9068 226.286 79.9839ZM170.016 134.646C200.205 134.646 224.678 110.173 224.678 79.9839C224.678 49.7947 200.205 25.3215 170.016 25.3215C139.827 25.3215 115.354 49.7947 115.354 79.9839C115.354 110.173 139.827 134.646 170.016 134.646Z" fill="#FF671F"/>
<path fill-rule="evenodd" clip-rule="evenodd" d="M204.984 93.4486C204.984 117.089 185.819 136.254 162.178 136.254C138.538 136.254 119.373 117.089 119.373 93.4486C119.373 69.8078 138.538 50.6431 162.178 50.6431C185.819 50.6431 204.984 69.8078 204.984 93.4486ZM162.178 134.646C184.931 134.646 203.376 116.201 203.376 93.4486C203.376 70.6957 184.931 52.2508 162.178 52.2508C139.426 52.2508 120.981 70.6957 120.981 93.4486C120.981 116.201 139.426 134.646 162.178 134.646Z" fill="#FF671F"/>
<path fill-rule="evenodd" clip-rule="evenodd" d="M183.682 107.114C183.682 118.99 174.054 128.617 162.178 128.617C150.303 128.617 140.675 118.99 140.675 107.114C140.675 95.2383 150.303 85.6109 162.178 85.6109C174.054 85.6109 183.682 95.2383 183.682 107.114ZM162.178 127.01C173.166 127.01 182.074 118.102 182.074 107.114C182.074 96.1262 173.166 87.2187 162.178 87.2187C151.19 87.2187 142.283 96.1262 142.283 107.114C142.283 118.102 151.19 127.01 162.178 127.01Z" fill="#FF671F"/>
<path fill-rule="evenodd" clip-rule="evenodd" d="M235.531 73.5531C235.531 106.85 208.538 133.842 175.241 133.842C141.944 133.842 114.952 106.85 114.952 73.5531C114.952 40.2561 141.944 13.2637 175.241 13.2637C208.538 13.2637 235.531 40.2561 235.531 73.5531ZM175.241 132.235C207.65 132.235 233.923 105.962 233.923 73.5531C233.923 41.1441 207.65 14.8714 175.241 14.8714C142.832 14.8714 116.559 41.1441 116.559 73.5531C116.559 105.962 142.832 132.235 175.241 132.235Z" fill="#FF671F"/>
<path d="M52.6178 56.9958C50.2217 56.9958 48.1464 56.4644 46.3818 55.4017C44.6173 54.339 43.2538 52.8552 42.2914 50.9503C41.3289 49.0454 40.8477 46.8397 40.8477 44.3132C40.8477 41.7868 41.3289 39.521 42.2914 37.606C43.2538 35.6911 44.6173 34.2073 46.3818 33.1446C48.1464 32.0819 50.2217 31.5605 52.6178 31.5605C53.9813 31.5605 55.2546 31.741 56.4276 32.0919C57.6006 32.4428 58.6533 32.9541 59.5757 33.6258C60.498 34.2976 61.2801 35.0996 61.9016 36.0621C62.5232 37.0145 62.9744 38.0973 63.2351 39.3004L57.8813 40.4233C57.7209 39.7917 57.4903 39.2202 57.1896 38.6989C56.8888 38.1775 56.5178 37.7364 56.0767 37.3654C55.6356 36.9945 55.1343 36.7138 54.5528 36.5132C53.9813 36.3127 53.3497 36.2125 52.6579 36.2125C51.3245 36.2125 50.2117 36.5734 49.3294 37.2852C48.4471 37.9971 47.7854 38.9595 47.3443 40.1726C46.9032 41.3857 46.6826 42.7593 46.6826 44.3032C46.6826 45.8472 46.9032 47.1806 47.3443 48.4037C47.7854 49.6168 48.4471 50.5893 49.3294 51.3012C50.2117 52.013 51.3145 52.3739 52.6579 52.3739C53.3597 52.3739 54.0014 52.2737 54.5829 52.0631C55.1644 51.8526 55.6757 51.5618 56.1268 51.1809C56.578 50.7999 56.9489 50.3387 57.2597 49.7973C57.5705 49.2559 57.7911 48.6544 57.9415 47.9927L63.2952 49.1156C63.0346 50.3487 62.5834 51.4516 61.9618 52.414C61.3402 53.3865 60.5582 54.2086 59.6258 54.8904C58.6934 55.5721 57.6307 56.1035 56.4577 56.4644C55.2747 56.8354 53.9914 57.0158 52.6178 57.0158V56.9958Z" fill="#003B5C"/>
<path d="M71.0752 28.3825C70.1629 28.3825 69.3809 28.0717 68.7292 27.4602C68.0776 26.8386 67.7467 26.1067 67.7467 25.2545C67.7467 24.4023 68.0776 23.6304 68.7292 23.0188C69.3809 22.4072 70.1629 22.1064 71.0752 22.1064C71.9876 22.1064 72.7896 22.4072 73.4413 23.0188C74.093 23.6304 74.4238 24.3622 74.4238 25.2345C74.4238 26.1067 74.093 26.8386 73.4413 27.4602C72.7896 28.0818 71.9976 28.3825 71.0752 28.3825ZM68.2079 56.4946V31.8615H73.9326V56.4946H68.2079Z" fill="#003B5C"/>
<path d="M80.0181 56.4943V31.8611H85.5723V35.9817H85.833C86.2741 34.558 87.0461 33.4552 88.1489 32.6832C89.2517 31.9113 90.505 31.5303 91.9186 31.5303C92.2394 31.5303 92.6003 31.5403 93.0014 31.5704C93.3924 31.6005 93.7332 31.6406 94.014 31.6807V36.9442C93.7834 36.874 93.3924 36.8038 92.871 36.7436C92.3497 36.6835 91.8183 36.6534 91.307 36.6534C90.2543 36.6534 89.3019 36.884 88.4497 37.3352C87.6075 37.7863 86.9458 38.4179 86.4646 39.22C85.9834 40.022 85.7528 40.9444 85.7528 41.9871V56.4843H80.0281L80.0181 56.4943Z" fill="#003B5C"/>
<path d="M102.566 82.0602C100.17 82.0602 98.0946 81.5289 96.3301 80.4661C94.5656 79.4034 93.2021 77.9196 92.2396 76.0147C91.2771 74.1098 90.7959 71.9042 90.7959 69.3777C90.7959 66.8512 91.2771 64.5854 92.2396 62.6705C93.2021 60.7556 94.5656 59.2718 96.3301 58.2091C98.0946 57.1463 100.17 56.625 102.566 56.625C103.93 56.625 105.203 56.8055 106.376 57.1564C107.549 57.5073 108.602 58.0186 109.524 58.6903C110.446 59.362 111.228 60.1641 111.85 61.1265C112.471 62.079 112.923 63.1618 113.183 64.3648L107.83 65.4877C107.669 64.8561 107.439 64.2846 107.138 63.7633C106.837 63.242 106.466 62.8008 106.025 62.4299C105.584 62.0589 105.083 61.7782 104.501 61.5777C103.93 61.3772 103.298 61.2769 102.606 61.2769C101.273 61.2769 100.16 61.6379 99.2776 62.3497C98.3954 63.0615 97.7337 64.024 97.2926 65.2371C96.8514 66.4502 96.6309 67.8237 96.6309 69.3677C96.6309 70.9116 96.8514 72.2451 97.2926 73.4682C97.7337 74.6813 98.3954 75.6538 99.2776 76.3656C100.16 77.0774 101.263 77.4384 102.606 77.4384C103.308 77.4384 103.95 77.3381 104.531 77.1276C105.113 76.917 105.624 76.6263 106.075 76.2453C106.526 75.8643 106.897 75.4032 107.208 74.8618C107.519 74.3204 107.749 73.7188 107.89 73.0571L113.243 74.18C112.983 75.4132 112.532 76.516 111.91 77.4785C111.288 78.451 110.506 79.2731 109.574 79.9548C108.642 80.6366 107.579 81.1679 106.406 81.5289C105.223 81.8998 103.94 82.0803 102.566 82.0803V82.0602Z" fill="#003B5C"/>
<path d="M37.7098 58.1282V82.7513H32.1555V78.6308H31.8948C31.4537 80.0544 30.6817 81.1572 29.5789 81.9192C28.4761 82.6912 27.2229 83.0722 25.8092 83.0722C25.4884 83.0722 25.1275 83.0621 24.7265 83.0321C24.3254 83.002 23.9946 82.9619 23.7139 82.9218V77.6583C23.9445 77.7285 24.3355 77.7986 24.8568 77.8588C25.3781 77.9189 25.9095 77.949 26.4208 77.949C27.4735 77.949 28.426 77.7184 29.2781 77.2673C30.1303 76.8161 30.782 76.1845 31.2632 75.3824C31.7445 74.5804 31.9751 73.658 31.9751 72.6153V58.1182H37.6997L37.7098 58.1282Z" fill="#003B5C"/>
<path d="M93.0918 86.9029C94.7761 86.9029 96.2599 87.2638 97.5332 87.9856C98.8064 88.7075 99.7889 89.7602 100.481 91.1437C101.183 92.5273 101.523 94.2116 101.523 96.1766V111.837H95.7987V97.0589C95.7987 95.4147 95.3676 94.1214 94.5054 93.179C93.6432 92.2365 92.4702 91.7653 90.9663 91.7653C89.9537 91.7653 89.0514 91.9859 88.2594 92.427C87.4674 92.8682 86.8458 93.5098 86.3946 94.362C85.9434 95.2142 85.7229 96.2268 85.7229 97.3998V111.827H79.9781V87.1936H85.4221L85.4923 93.2692H85.0512C85.7429 91.1237 86.7656 89.5296 88.109 88.4669C89.4524 87.4042 91.1167 86.8828 93.0918 86.8828V86.9029Z" fill="#003B5C"/>
<path d="M68.1779 120.028V87.2041H73.9025V120.028H68.1779Z" fill="#003B5C"/>
<path d="M55.2247 86.7021C56.7787 86.7021 58.1823 86.9829 59.4355 87.5543C60.6887 88.1158 61.6712 88.9479 62.383 90.0507C63.0949 91.1536 63.4658 92.507 63.4658 94.1312C63.4658 95.5248 63.2051 96.6777 62.6838 97.5901C62.1625 98.5024 61.4607 99.2243 60.5684 99.7757C59.6761 100.317 58.6735 100.728 57.5607 101.009C56.4478 101.29 55.2848 101.49 54.0818 101.6C52.6581 101.761 51.4951 101.901 50.6028 102.021C49.7105 102.142 49.0488 102.332 48.6278 102.593C48.2067 102.854 47.9961 103.265 47.9961 103.826V103.936C47.9961 104.748 48.1566 105.43 48.4774 105.992C48.7982 106.553 49.2794 106.994 49.9211 107.295C50.5627 107.596 51.3447 107.746 52.2872 107.746C53.2296 107.746 54.0717 107.596 54.7635 107.305C55.4553 107.014 56.0267 106.633 56.4679 106.162C56.909 105.691 57.2298 105.19 57.4404 104.638L62.754 105.721C62.2728 107.175 61.5208 108.378 60.5082 109.32C59.4956 110.263 58.2825 110.974 56.889 111.446C55.4954 111.917 53.9614 112.147 52.3172 112.147C51.1542 112.147 49.9812 112.017 48.8082 111.736C47.6252 111.466 46.5424 111.004 45.5599 110.363C44.5774 109.721 43.7854 108.849 43.1838 107.766C42.5823 106.683 42.2815 105.31 42.2815 103.666V87.2135H47.7656V90.6021H47.9861C48.3571 89.9104 48.8584 89.2687 49.5 88.6772C50.1416 88.0857 50.9337 87.6045 51.8761 87.2435C52.8185 86.8826 53.9414 86.7021 55.2347 86.7021H55.2247ZM53.7509 90.953C52.5578 90.953 51.5352 91.1836 50.683 91.6549C49.8208 92.1261 49.1591 92.7477 48.6779 93.5196C48.1967 94.2916 47.9661 95.1338 47.9661 96.0461V98.9536C48.1566 98.8032 48.4774 98.6628 48.9285 98.5325C49.3797 98.4022 49.871 98.2818 50.4224 98.1816C50.9738 98.0813 51.5152 97.9911 52.0566 97.9209C52.5879 97.8507 53.0391 97.7906 53.41 97.7405C54.2622 97.6201 55.0342 97.4297 55.726 97.169C56.4177 96.9083 56.9591 96.5374 57.3501 96.0561C57.7411 95.5749 57.9316 94.9633 57.9316 94.1914C57.9316 93.4896 57.7512 92.898 57.3902 92.4168C57.0293 91.9356 56.5381 91.5746 55.9165 91.324C55.2949 91.0734 54.573 90.953 53.771 90.953H53.7509Z" fill="#003B5C"/>
<path d="M157.449 49.1758V82H151.724V49.1758H157.449Z" fill="#003B5C"/>
<path d="M170.402 82.5019C168.848 82.5019 167.445 82.2212 166.192 81.6497C164.948 81.0883 163.956 80.2561 163.244 79.1533C162.522 78.0505 162.161 76.697 162.161 75.0728C162.161 73.6793 162.422 72.5263 162.943 71.614C163.465 70.7016 164.166 69.9798 165.059 69.4284C165.951 68.887 166.954 68.4759 168.066 68.1952C169.179 67.9145 170.342 67.714 171.545 67.6037C172.969 67.4433 174.132 67.3029 175.024 67.1826C175.917 67.0623 176.578 66.8718 176.999 66.6111C177.42 66.3505 177.631 65.9394 177.631 65.378V65.2677C177.631 64.4556 177.471 63.7739 177.15 63.2124C176.829 62.651 176.348 62.2099 175.706 61.9091C175.064 61.6083 174.282 61.4579 173.34 61.4579C172.398 61.4579 171.555 61.6083 170.864 61.8991C170.172 62.1898 169.6 62.5708 169.159 63.042C168.718 63.5132 168.397 64.0145 168.187 64.5659L162.873 63.4831C163.354 62.0294 164.106 60.8263 165.119 59.8839C166.131 58.9415 167.335 58.2296 168.738 57.7584C170.142 57.2872 171.666 57.0566 173.31 57.0566C174.473 57.0566 175.646 57.187 176.819 57.4677C178.002 57.7384 179.085 58.1996 180.067 58.8412C181.05 59.4829 181.842 60.3551 182.443 61.4379C183.045 62.5207 183.346 63.8942 183.346 65.5384V81.9906H177.862V78.6019H177.641C177.27 79.2937 176.769 79.9353 176.137 80.5268C175.495 81.1183 174.703 81.5996 173.761 81.9605C172.819 82.3214 171.696 82.5019 170.402 82.5019ZM171.876 78.251C173.069 78.251 174.092 78.0204 174.944 77.5492C175.806 77.078 176.468 76.4564 176.949 75.6844C177.43 74.9124 177.661 74.0703 177.661 73.1579V70.2505C177.471 70.4009 177.15 70.5412 176.699 70.6716C176.247 70.8019 175.756 70.9222 175.205 71.0225C174.653 71.1227 174.112 71.2129 173.571 71.2831C173.039 71.3533 172.578 71.4135 172.217 71.4636C171.365 71.5839 170.593 71.7744 169.901 72.0351C169.209 72.2957 168.668 72.6667 168.277 73.1479C167.886 73.6291 167.695 74.2407 167.695 75.0127C167.695 75.7145 167.876 76.306 168.237 76.7872C168.598 77.2685 169.089 77.6294 169.711 77.88C170.332 78.1307 171.054 78.251 171.856 78.251H171.876Z" fill="#003B5C"/>
<path d="M202.434 82.4411C201.041 82.4411 199.868 82.2005 198.935 81.7293C197.993 81.248 197.241 80.6766 196.69 80.0048C196.138 79.3331 195.707 78.7015 195.416 78.11H195.045V82.01H189.451V49.1758H195.176V61.4472H195.416C195.707 60.8557 196.128 60.2241 196.67 59.5524C197.211 58.8807 197.953 58.2892 198.885 57.7979C199.818 57.3066 201.011 57.056 202.464 57.056C204.369 57.056 206.094 57.5372 207.618 58.5097C209.142 59.4822 210.365 60.9059 211.267 62.7907C212.169 64.6755 212.62 66.9915 212.62 69.7185C212.62 72.4455 212.179 74.7213 211.297 76.6161C210.415 78.511 209.212 79.9547 207.678 80.9473C206.144 81.9398 204.399 82.4311 202.444 82.4311L202.434 82.4411ZM200.89 77.729C202.164 77.729 203.236 77.3781 204.109 76.6863C204.981 75.9946 205.633 75.0321 206.074 73.819C206.515 72.6059 206.735 71.2424 206.735 69.7084C206.735 68.1745 206.515 66.821 206.084 65.6179C205.653 64.4249 205.001 63.4825 204.139 62.8007C203.266 62.119 202.194 61.7781 200.9 61.7781C199.607 61.7781 198.574 62.1089 197.702 62.7706C196.83 63.4323 196.178 64.3547 195.727 65.5377C195.276 66.7208 195.055 68.1143 195.055 69.7084C195.055 71.3025 195.276 72.7161 195.727 73.9192C196.178 75.1223 196.84 76.0547 197.712 76.7264C198.584 77.3982 199.647 77.729 200.89 77.729Z" fill="#003B5C"/>
</svg>
