<?xml version="1.0" encoding="UTF-8"?>
<svg id="Layer_1" data-name="Layer 1" xmlns="http://www.w3.org/2000/svg" viewBox="0 0 352.74 352.74">
  <defs>
    <style>
      .cls-1 {
        stroke: #000;
        stroke-miterlimit: 10;
      }
    </style>
  </defs>
  <path class="cls-1" d="M176.37.5C79.24.5.5,79.24.5,176.37s78.74,175.87,175.87,175.87,175.87-78.74,175.87-175.87S273.5.5,176.37.5ZM167.69,78.08c-12.84-5.81-16.72-26.58-17-29.42,1.79-.2,17.11.8,24.73,9.46,3.84,4.36,5.66,10.93,5.11,15.69h.84c6.18-10.86,22.66-10.19,25.31-10.6.3,1.77,2.15,14.11-6.07,22.2-5.42,5.33-14.63,8.25-19,6v13.06c7.44-6.26,19.38-5.85,21.61-6.19.3,1.77,2.15,14.11-6.07,22.2-4.23,4.16-10.78,6.85-15.54,6.76v51.47l60.97.49c-1.64,36.91-32.93,65.82-69.07,64.75-35.08-1.04-64.11-30-65.11-65.83l64.21.52v-37.39c-3.38,1.17-8.33-1.06-9.22-1.46-12.84-5.81-14.88-24.28-15.16-27.12,1.79-.2,14.21-1.37,21.83,7.29.95,1.08,1.8,2.29,2.54,3.57v-43.87c-2.3-.42-4.38-1.35-4.92-1.59ZM285.94,245.34c-11.07,17.05-26.66,31.5-45.1,41.79-19.7,10.99-42.27,16.9-65.28,17.1-.03,0-.08,0-.16,0-2.01,0-20.29-.22-42.57-7.8-29.15-9.93-52.37-28.15-67.14-52.71-18.34-30.48-22.44-67.57-11.54-104.44,6.63-22.43,19.32-37.4,27.71-47.3.94-1.11,1.83-2.16,2.64-3.14l27.76,22.92c-.91,1.1-1.89,2.26-2.94,3.5-7.21,8.5-16.17,19.08-20.65,34.23-8.12,27.46-5.4,53.63,7.87,75.68,25.56,42.48,78.25,43.08,78.78,43.08,32.75-.28,63.59-16.56,80.42-42.49,13.39-20.62,12.96-41.21,12.82-47.98-.01-.69-.02-1.26-.03-1.71-.09-29.1-15.43-48.49-20.47-54.86l-10.43,10.43,4.58-40.18,42.63-1.12-8.54,8.54c18.64,23.57,28.14,49.5,28.23,77.07,0,.29,0,.65.02,1.08.53,25.49-5.74,48.48-18.62,68.32Z"/>
</svg>