<?xml version="1.0" encoding="UTF-8"?>
<svg id="Layer_1" data-name="Layer 1" xmlns="http://www.w3.org/2000/svg" viewBox="0 0 352.74 352.74">
  <defs>
    <style>
      .cls-1 {
        stroke: #000;
        stroke-miterlimit: 10;
      }
    </style>
  </defs>
  <path class="cls-1" d="M138.8,239.3h6.97c2.59-.06,8.34-4.97,5.36-11.61l-.09-.36-6.88-11.88-14.29,8.31,8.93,15.54Z"/>
  <path class="cls-1" d="M116.55,203.83l-3.48-5.99c-.68-1.13-2.78-2.35-5.27-2.5-2.49-.16-5.36.71-7.5,3.66l-.18.27-6.88,11.88,14.29,8.31,9.02-15.63Z"/>
  <path class="cls-1" d="M114.32,196.95l9.2,16.08-5,2.95,16.44-.09,8.04-14.11-5,2.95-4.82-8.4c-.51-1.07-1.3-1.79-3.22-1.61l-18.67.09c.61.17,2.02.45,3.04,2.14Z"/>
  <path class="cls-1" d="M126.92,240.82v-5.81l-8.13,14.2,8.04,14.11.09-5.9h9.65c1.13.11,2.17-.13,2.95-1.88l9.38-16.26c-.45.45-1.52,1.46-3.48,1.52h-18.49Z"/>
  <path class="cls-1" d="M93.42,246.8c-1.24,2.31.15,9.72,7.41,10.45l.36.09h13.76v-16.53h-18.05l-3.48,5.99Z"/>
  <path class="cls-1" d="M82.25,233.67l9.47,16.26c-.17-.67-.6-2.07.36-3.75l9.29-16.08,5.09,2.95-8.31-14.2h-16.26l5,2.95-4.82,8.31c-.61.96-.89,1.99.18,3.57Z"/>
  <path class="cls-1" d="M176.37.5C79.24.5.5,79.24.5,176.37s78.74,175.87,175.87,175.87,175.87-78.74,175.87-175.87S273.5.5,176.37.5ZM215.54,58.24c28.51-1.84,31.52,41.11,4.02,43.78-30.14,2.92-32.77-41.93-4.02-43.78ZM95.9,117.64l3.13-3.13c.82-.82,2.15-.82,2.98,0l2.18,2.18,9.44-.62c1.38,0,3.53,1.16,4.52,2.13l18.48,18.19c2.05,2.02,2.1,5.31.11,7.39l-10.35,10.79c-2.03,2.11-5.39,2.16-7.48.11l-20.71-20.31c-1.15-1.13-1.72-2.73-1.55-4.33l.84-7.64-1.66-1.87c-.74-.83-.7-2.1.08-2.89ZM158.08,291.2h-78.97l-17.69-124.14h112.77l-16.11,124.14ZM271.94,291.86h-8.15l-15.83-70.99-28.78,70.99h-12.37l13.74-116.36-3.14-23.79-8.17-17.49-78.59-17.51c-.05,0-.1-.02-.16-.03l-.11-.02h0c-1.08-.33-1.88-1.34-1.88-2.55,0-1.46,1.16-2.65,2.6-2.65.03,0,.05,0,.08,0h0s123.22-4.13,123.22-4.13l28.32,49.47-10.79,135.06Z"/>
</svg>