<svg width="20" height="20" viewBox="0 0 20 20" fill="none" xmlns="http://www.w3.org/2000/svg">
<path d="M18.1818 0H1.81818C0.813636 0 0 0.813636 0 1.81818V18.1818C0 19.1864 0.813636 20 1.81818 20H10.9091V11.8182H8.18182V9.09091H10.9091V7.62636C10.9091 4.85364 12.26 3.63636 14.5645 3.63636C15.6682 3.63636 16.2518 3.71818 16.5282 3.75545V6.36364H14.9564C13.9782 6.36364 13.6364 6.88 13.6364 7.92546V9.09091H16.5036L16.1145 11.8182H13.6364V20H18.1818C19.1864 20 20 19.1864 20 18.1818V1.81818C20 0.813636 19.1855 0 18.1818 0Z" fill="white"/>
</svg>
