<svg width="148" height="38" viewBox="0 0 148 38" fill="none" xmlns="http://www.w3.org/2000/svg">
<path d="M6.44358 0H0.165771V37.0365H6.78816L21.3 23.2103L37.8003 37.0365H47.7178L25.9482 18.9075L45.7364 0H36.6661L6.44358 28.7629V0Z" fill="#262625"/>
<path fill-rule="evenodd" clip-rule="evenodd" d="M67.2296 0.00357021C51.203 0.00357021 48.9992 8.90204 48.9992 18.5147C48.9992 28.1344 51.2066 37.0293 67.2332 37.0329H93.2094V30.7554H67.6783C58.9238 30.7554 56.4256 28.4308 55.6251 23.5531H80.9984C90.4923 23.5531 94.7278 19.9359 94.7278 11.8301C94.7278 3.53868 90.5713 0.00357021 80.8189 0.00357021H67.2296ZM80.1441 6.13466C87.5059 6.13466 88.2741 7.87007 88.2741 11.8301C88.2741 15.5866 87.4952 17.2363 80.0113 17.2363H55.2949C55.4816 9.42695 57.5455 6.13466 67.6783 6.13466H80.1441Z" fill="#262625"/>
<path fill-rule="evenodd" clip-rule="evenodd" d="M115.973 37.0293H147.696V15.8687C147.696 5.19553 141.881 0.00357021 129.914 0.00357021H104.624V6.31677H129.559C138.123 6.31677 140.751 9.00202 141.368 13.187H115.797C106.293 13.187 102.057 16.8471 102.057 25.06C102.057 33.3371 106.35 37.0293 115.973 37.0293ZM108.518 25.06C108.518 28.9772 108.848 30.7126 116.648 30.7126H141.508V19.5109H116.781C109.326 19.5109 108.518 21.2892 108.518 25.06Z" fill="#262625"/>
</svg>
