<svg width="152" height="84" viewBox="0 0 152 84" fill="none" xmlns="http://www.w3.org/2000/svg">
<path d="M14.7335 0.348633V82.0152H0.490479V0.348633H14.7335Z" fill="#FF671F"/>
<path d="M46.9611 83.2629C43.0948 83.2629 39.6026 82.5644 36.4846 81.1426C33.3916 79.7458 30.9221 77.6754 29.1511 74.9316C27.3551 72.1877 26.4572 68.8203 26.4572 64.7794C26.4572 61.3122 27.1057 58.4436 28.4028 56.1737C29.6999 53.9038 31.4459 52.1078 33.666 50.7359C35.886 49.389 38.3803 48.3663 41.1491 47.6678C43.9179 46.9694 46.8114 46.4705 49.8047 46.1961C53.3467 45.797 56.2402 45.4478 58.4602 45.1485C60.6803 44.8492 62.3266 44.3752 63.3742 43.7267C64.4219 43.0781 64.9457 42.0554 64.9457 40.6586V40.3842C64.9457 38.3637 64.5466 36.6675 63.7484 35.2707C62.9502 33.8738 61.7529 32.7763 60.1565 32.028C58.56 31.2796 56.6144 30.9055 54.2697 30.9055C51.9249 30.9055 49.8296 31.2796 48.1085 32.003C46.3874 32.7264 44.9656 33.6743 43.868 34.8466C42.7705 36.019 41.9723 37.2662 41.4485 38.6381L28.2282 35.9442C29.4255 32.3273 31.2963 29.334 33.8156 26.9893C36.335 24.6446 39.3283 22.8735 42.8204 21.7012C46.3126 20.5288 50.104 19.9551 54.1948 19.9551C57.0883 19.9551 60.0068 20.2794 62.9252 20.9778C65.8686 21.6513 68.5625 22.7987 71.0071 24.3951C73.4516 25.9915 75.4222 28.1616 76.9188 30.8556C78.4154 33.5495 79.1637 36.9669 79.1637 41.0577V81.9907H65.5194V73.5597H64.9706C64.0477 75.2808 62.8005 76.8772 61.229 78.3489C59.6326 79.8206 57.6621 81.0179 55.3173 81.9159C52.9726 82.8139 50.1788 83.2629 46.9611 83.2629ZM50.6278 72.6866C53.5962 72.6866 56.1405 72.1129 58.2607 70.9405C60.4059 69.7682 62.0522 68.2216 63.2495 66.301C64.4468 64.3803 65.0205 62.285 65.0205 60.0151V52.7813C64.5466 53.1555 63.7484 53.5047 62.6259 53.829C61.5034 54.1533 60.2812 54.4526 58.9093 54.702C57.5373 54.9515 56.1904 55.176 54.8434 55.3506C53.5213 55.5252 52.3739 55.6748 51.4759 55.7996C49.3557 56.0989 47.435 56.5728 45.7139 57.2214C43.9927 57.8699 42.6458 58.7928 41.673 59.9901C40.7002 61.1875 40.2262 62.709 40.2262 64.6297C40.2262 66.3758 40.6752 67.8475 41.5732 69.0448C42.4712 70.2421 43.6934 71.1401 45.2399 71.7637C46.7865 72.3873 48.5825 72.6866 50.578 72.6866H50.6278Z" fill="#FF671F"/>
<path d="M126.657 83.1127C123.189 83.1127 120.271 82.514 117.951 81.3417C115.607 80.1444 113.736 78.7226 112.364 77.0513C110.992 75.3801 109.919 73.8086 109.196 72.3369H108.273V82.0401H94.3542V0.348633H108.597V30.88H109.196C109.919 29.4083 110.967 27.8369 112.314 26.1656C113.661 24.4944 115.507 23.0227 117.827 21.8004C120.146 20.5782 123.115 19.9546 126.732 19.9546C131.471 19.9546 135.761 21.1519 139.553 23.5715C143.344 25.991 146.387 29.5331 148.632 34.2225C150.877 38.912 152 44.6741 152 51.4588C152 58.2436 150.902 63.9058 148.707 68.6203C146.512 73.3347 143.519 76.9266 139.702 79.396C135.886 81.8655 131.546 83.0878 126.682 83.0878L126.657 83.1127ZM122.815 71.389C125.983 71.389 128.652 70.516 130.822 68.7949C132.992 67.0737 134.614 64.6791 135.711 61.6609C136.809 58.6427 137.358 55.2503 137.358 51.4339C137.358 47.6174 136.809 44.25 135.736 41.2567C134.664 38.2884 133.042 35.9437 130.897 34.2475C128.727 32.5513 126.058 31.7032 122.84 31.7032C119.622 31.7032 117.053 32.5263 114.883 34.1726C112.713 35.8189 111.092 38.1138 109.969 41.0572C108.847 44.0006 108.298 47.4678 108.298 51.4339C108.298 55.4 108.847 58.9171 109.969 61.9103C111.092 64.9036 112.738 67.2234 114.908 68.8946C117.078 70.5659 119.722 71.389 122.815 71.389Z" fill="#FF671F"/>
</svg>
