<?xml version="1.0" encoding="UTF-8"?>
<svg id="Layer_1" data-name="Layer 1" xmlns="http://www.w3.org/2000/svg" viewBox="0 0 352.74 352.74">
  <defs>
    <style>
      .cls-1 {
        stroke: #000;
        stroke-miterlimit: 10;
      }
    </style>
  </defs>
  <path class="cls-1" d="M176.37.5C79.24.5.5,79.24.5,176.37s78.74,175.87,175.87,175.87,175.87-78.74,175.87-175.87S273.5.5,176.37.5ZM285.27,283.05c-16.87-3.18-31.23-13.25-46.57-20.21l-22.99,9.82,3.42-8.84-12.12,2.41,2.28-5.89-18.48-.9c-1.71-.08-9.16-3.12-11.3-4.07-8.81-3.9-18.14-11.22-24.14-18.67,14.58,4.17,28.86,8.02,44.17,8.14,1.21,0,3.68.93,3.53-.82-44.06-3.83-87.51-29.46-101.57-73.02,9.83,3.37,20.69,9.13,31.05,10.49,1.09.14,3.69.92,3.51-.8-21.6-10.54-46.75-20.45-58.8-42.61-3.77-6.93-5.74-14.71-9.15-21.78l.05-1,23.39,13.14c-9.58-10.54-19.28-15.71-20.38-31.62-1.9-27.5,16.72-54.62,46.64-41.36,38.86,17.23,42.57,64.07,38.46,101.16,1.71-.35,2.55-4.18,2.97-5.65,3.51-12.15,3.81-26.98,3.21-39.58-.31-6.51-2.26-13.05-1.54-19.6,16.76,23.08,34.41,46,42.97,73.68,1.19,1.36,1.19-.6,1.53-1.48,1.86-4.87,2.91-10.61,3.34-15.82,16.19,22.61,18.58,52.93,19.14,80.02,4.92-1.39,6.29-25.81,8.74-25.62l3,31.19,4.22-4.8-4.35,17.79c-69.26-40.97-127.36-103.02-140.71-185.03-1.75-.09-1.32,4.32-1.3,5.48.72,44.57,36.17,99.57,66.78,130.37,29.63,29.81,62.39,50.95,100.57,68.2,3.03,1.37,17.97,6.73,18.92,7.66,1.59,1.54.02,4.31,1.71,5.61l-.19,4Z"/>
</svg>