<svg width="20" height="20" viewBox="0 0 20 20" fill="none" xmlns="http://www.w3.org/2000/svg">
<path d="M0 5.83333H4.16667V20H0V5.83333ZM2.07083 4.16667H2.0475C0.804166 4.16667 0 3.24 0 2.0825C0 0.9 0.829167 0 2.095 0C3.3625 0 4.14333 0.9 4.16667 2.0825C4.16667 3.23917 3.3625 4.16667 2.07083 4.16667ZM20 20H15.8333V12.4175C15.8333 10.5858 14.8125 9.33583 13.1733 9.33583C11.9225 9.33583 11.2458 10.1792 10.9175 10.9942C10.7975 11.2858 10.8333 12.0925 10.8333 12.5V20H6.66667V5.83333H10.8333V8.01333C11.4342 7.08333 12.375 5.83333 14.7817 5.83333C17.7633 5.83333 19.9992 7.70833 19.9992 11.895L20 20Z" fill="white"/>
</svg>
