<?xml version="1.0" encoding="UTF-8"?>
<svg id="Layer_1" data-name="Layer 1" xmlns="http://www.w3.org/2000/svg" viewBox="0 0 352.74 352.74">
  <defs>
    <style>
      .cls-1 {
        stroke: #000;
        stroke-miterlimit: 10;
      }
    </style>
  </defs>
  <path class="cls-1" d="M158.83,184.44c-1.73-2.57-3.98-4.62-6.75-6.15-2.77-1.53-6.05-2.3-9.85-2.3s-7.08.77-9.85,2.3c-2.77,1.53-5.02,3.58-6.75,6.15-1.73,2.57-3.02,5.48-3.85,8.75-.83,3.27-1.25,6.6-1.25,10s.42,6.73,1.25,10c.83,3.27,2.12,6.18,3.85,8.75,1.73,2.57,3.98,4.62,6.75,6.15,2.77,1.53,6.05,2.3,9.85,2.3s7.08-.77,9.85-2.3c2.77-1.53,5.02-3.58,6.75-6.15,1.73-2.57,3.02-5.48,3.85-8.75.83-3.27,1.25-6.6,1.25-10s-.42-6.73-1.25-10c-.83-3.27-2.12-6.18-3.85-8.75Z"/>
  <path class="cls-1" d="M176.37.5C79.24.5.5,79.24.5,176.37s78.74,175.87,175.87,175.87,175.87-78.74,175.87-175.87S273.5.5,176.37.5ZM274.02,88.68c6.82,0,12.34,5.53,12.34,12.34s-5.53,12.34-12.34,12.34-12.34-5.53-12.34-12.34,5.53-12.34,12.34-12.34ZM248.29,81.32c6.82,0,12.34,5.53,12.34,12.34s-5.53,12.34-12.34,12.34-12.34-5.53-12.34-12.34,5.53-12.34,12.34-12.34ZM219.39,79.01c8,0,14.49,6.49,14.49,14.49s-6.49,14.49-14.49,14.49-14.49-6.49-14.49-14.49,6.49-14.49,14.49-14.49ZM176.16,80.35c12.55,0,22.72,10.17,22.72,22.72s-10.17,22.72-22.72,22.72-22.72-10.17-22.72-22.72,10.17-22.72,22.72-22.72ZM102.39,223.39c-1.36,3.53-3.19,6.58-5.49,9.15-2.31,2.57-5.01,4.55-8.13,5.95-3.11,1.4-6.54,2.1-10.29,2.1-4.61,0-8.75-.98-12.41-2.95-3.66-1.97-6.76-4.65-9.29-8.05-2.54-3.4-4.48-7.37-5.84-11.9-1.36-4.53-2.03-9.37-2.03-14.5s.68-9.87,2.03-14.4c1.35-4.53,3.3-8.5,5.84-11.9,2.54-3.4,5.63-6.1,9.29-8.1,3.66-2,7.79-3,12.41-3,3.46,0,6.71.55,9.77,1.65,3.05,1.1,5.75,2.7,8.08,4.8,2.33,2.1,4.22,4.65,5.66,7.65,1.44,3,2.33,6.43,2.68,10.3h-10.81c-.46-2.07-1.1-3.97-1.9-5.7-.81-1.73-1.84-3.23-3.11-4.5-1.27-1.27-2.75-2.25-4.45-2.95-1.7-.7-3.67-1.05-5.92-1.05-3.29,0-6.12.77-8.52,2.3-2.39,1.53-4.34,3.58-5.84,6.15-1.5,2.57-2.61,5.48-3.33,8.75-.72,3.27-1.08,6.6-1.08,10s.36,6.73,1.08,10c.72,3.27,1.83,6.18,3.33,8.75,1.5,2.57,3.44,4.62,5.84,6.15,2.39,1.53,5.23,2.3,8.52,2.3,2.42,0,4.55-.48,6.4-1.45,1.84-.97,3.43-2.3,4.75-4,1.32-1.7,2.36-3.68,3.11-5.95.75-2.27,1.24-4.7,1.47-7.3h10.55c-.23,4.27-1.02,8.17-2.38,11.7ZM174.08,217.69c-1.57,4.53-3.82,8.5-6.75,11.9-2.93,3.4-6.52,6.08-10.75,8.05-4.23,1.97-9.02,2.95-14.35,2.95s-10.12-.98-14.35-2.95c-4.23-1.97-7.82-4.65-10.75-8.05-2.93-3.4-5.18-7.37-6.75-11.9-1.57-4.53-2.35-9.37-2.35-14.5s.78-9.87,2.35-14.4c1.57-4.53,3.82-8.5,6.75-11.9,2.93-3.4,6.52-6.1,10.75-8.1,4.23-2,9.02-3,14.35-3s10.12,1,14.35,3c4.23,2,7.82,4.7,10.75,8.1s5.18,7.37,6.75,11.9c1.57,4.53,2.35,9.33,2.35,14.4s-.78,9.97-2.35,14.5ZM185.47,236.34c14.41-16.97,21.38-31.14,21.38-39.07,0-7.45-4.8-10.65-8.89-10.65-3.6,0-6.08.4-8.73,3.2-3.04,3.12-3.76,7.13-3.76,11.85l.29,1.82-1.16.8v-.05c-.38-1.47-.54-2.98-.5-4.49.05-1.62.16-3.4.43-4.62.7-3.1,2.44-5.88,4.95-7.82,1.35-1.04,2.56-1.84,3.51-2.54,1.76-1.28,3.28-1.12,5.52-1.12,6.65,0,12.33,5.28,12.33,10.73,0,2.8,0,4.48-.8,7.13-1.76,5.92-7.93,15.93-17.53,30.58h18.01l1.6,4.24h-26.66ZM291.11,201.31c-6.68,37.09-32.41,60.82-32.41,60.82,0,0-23.06,13.37-35.75-3.01-12.7-16.37,5.68-34.75,5.68-34.75,0,0,13.7-12.7,10.02-28.4-3.68-15.71-27.4-23.73-27.4-23.73,0,0-33.42-12.03-25.73-31.41,7.69-19.38,32.41-29.41,32.41-29.41,0,0,18.71-7.02,41.44,1.34,22.72,8.35,29.41,28.4,29.41,28.4,0,0,9.02,23.06,2.34,60.15ZM292.24,128.45c-5.09,0-9.22-4.13-9.22-9.22s4.13-9.22,9.22-9.22,9.22,4.13,9.22,9.22-4.13,9.22-9.22,9.22Z"/>
</svg>