<?xml version="1.0" encoding="UTF-8"?>
<svg id="Layer_1" data-name="Layer 1" xmlns="http://www.w3.org/2000/svg" viewBox="0 0 352.74 352.74">
  <defs>
    <style>
      .cls-1 {
        stroke: #000;
        stroke-miterlimit: 10;
      }
    </style>
  </defs>
  <path class="cls-1" d="M176.37.5C79.24.5.5,79.24.5,176.37s78.74,175.87,175.87,175.87,175.87-78.74,175.87-175.87S273.5.5,176.37.5ZM97.59,98.42v-56.3h64.89v55.84h14.66l-49.13,49.13-48.51-48.51,18.09-.17ZM185.29,167.85c11.79,0,21.34,9.55,21.34,21.34s-9.55,21.34-21.34,21.34-21.34-9.55-21.34-21.34,9.55-21.34,21.34-21.34ZM107.7,130.62l20.28,20.28,25.61-25.61,19.11,34.47c-23.2,8.74-21.69,33.14-21.69,33.14h-65.08c.13-29.38,10.14-49.18,21.78-62.28ZM136.81,267.59l28.24-53.27c19.98,14.67,39.61.09,39.61.09l35.51,54.54c-59.25,38.22-103.37-1.37-103.37-1.37ZM278.58,194.17l-60.28.88c3.25-24.58-18.98-34.77-18.98-34.77l30.72-57.38c62.02,33.54,48.55,91.27,48.55,91.27Z"/>
</svg>