<?xml version="1.0" encoding="UTF-8"?>
<svg id="Layer_1" data-name="Layer 1" xmlns="http://www.w3.org/2000/svg" viewBox="0 0 352.74 352.74">
  <defs>
    <style>
      .cls-1 {
        stroke: #000;
        stroke-miterlimit: 10;
      }
    </style>
  </defs>
  <path class="cls-1" d="M176.37.5C79.24.5.5,79.24.5,176.37s78.74,175.87,175.87,175.87,175.87-78.74,175.87-175.87S273.5.5,176.37.5ZM85.43,252.12l-32.73-56.2c-3.71-5.48-2.74-9.03-.62-12.35l16.67-28.72-17.29-10.19h56.2l28.72,49.1-17.6-10.19-32.11,55.58c-3.32,5.83-1.81,10.65-1.24,12.97ZM165.71,277.75h-47.55l-1.24-.31c-25.13-2.55-29.91-28.14-25.63-36.13l12.04-20.69h62.37v57.12ZM140.08,146.82l-49.4-28.72,23.78-41.07.62-.93c7.41-10.19,17.33-13.2,25.94-12.66,8.61.54,15.86,4.75,18.22,8.65l12.04,20.69-31.19,54.04ZM163.55,69.01c-3.51-5.87-8.38-6.83-10.5-7.41l64.53-.31c6.64-.62,9.34,1.85,11.12,5.56l16.67,29.03,17.29-10.19-27.79,48.79-56.82.31,17.29-10.19-31.8-55.58ZM250.62,271.57c-2.7,6.02-6.29,6.87-10.19,6.48h-33.35l-.31,20.38-27.79-48.79,28.1-49.1v20.07h63.92c6.79-.19,10.5-3.71,12.04-5.25l-32.42,56.2ZM272.24,215.37h-24.08l-30.88-53.73,49.4-28.72,23.78,41.07.31,1.24c10.31,22.97-9.57,39.95-18.53,40.14Z"/>
</svg>