<?xml version="1.0" encoding="UTF-8"?>
<svg id="Layer_1" data-name="Layer 1" xmlns="http://www.w3.org/2000/svg" viewBox="0 0 352.74 352.74">
  <defs>
    <style>
      .cls-1 {
        stroke: #000;
        stroke-miterlimit: 10;
      }
    </style>
  </defs>
  <path class="cls-1" d="M157.26,146.51c-26.12,6.59-45.89,37.35-45.89,37.35,36.86-32.83,47.85-27.95,75.43-35.76,27.59-7.81,41.01-42.6,41.01-42.6-22.95,32.35-44.43,34.42-70.55,41.01Z"/>
  <path class="cls-1" d="M176.37.5C79.24.5.5,79.24.5,176.37s78.74,175.87,175.87,175.87,175.87-78.74,175.87-175.87S273.5.5,176.37.5ZM214.92,217.77c-3.98,3.15-8.34,5.81-12.98,7.88-17.87,7.94-63.22,21.57-98.39-23.57-2.87,3.33-29.76,36.02-10.29,69.45l-12.09-8.37s-9.64-40.6,17.76-67.58c-2.05-4.62-17.46-42.98,25.09-68.85,11.66-7.09,24.86-11.24,38.44-12.6,23.56-2.36,73.84-10.46,75.62-36.83,0,0,49.85,82.78-23.16,140.46Z"/>
</svg>