<svg width="17" height="19" viewBox="0 0 17 19" fill="none" xmlns="http://www.w3.org/2000/svg">
<path d="M2.61536 0L3.81516 0.00063359L4.59128 3.61824H4.66647L5.40401 0.00126658L6.61755 0.00063359L5.23074 4.9989V7.6H4.03878L4.03682 5.1395L2.61536 0ZM6.62932 3.2186C6.62932 2.793 6.77251 2.4529 7.0589 2.20147C7.34463 1.94877 7.72844 1.82147 8.21228 1.82083C8.65363 1.82083 9.01324 1.9532 9.2944 2.21983C9.5749 2.48457 9.71613 2.82784 9.71613 3.2471L9.71809 6.0876C9.71809 6.55754 9.58144 6.9274 9.30617 7.1972C9.0309 7.46574 8.65298 7.6 8.16847 7.6C7.70163 7.6 7.3309 7.46004 7.04909 7.18454C6.76924 6.90904 6.63063 6.53664 6.62997 6.06987L6.62801 3.21797L6.62932 3.2186ZM7.72517 6.17247C7.72517 6.32194 7.76244 6.44037 7.84155 6.5227C7.91674 6.60377 8.02398 6.64494 8.16521 6.64494C8.30971 6.64494 8.42282 6.60314 8.50782 6.51764C8.59217 6.43594 8.63598 6.31877 8.63598 6.1712L8.63401 3.1749C8.63401 3.05584 8.5889 2.9583 8.50259 2.8842C8.41694 2.81074 8.30317 2.77337 8.16324 2.77337C8.03313 2.77337 7.92721 2.81137 7.84547 2.88484C7.7644 2.95894 7.72386 3.05647 7.72386 3.17554L7.72517 6.17247ZM13.7307 1.9V7.6H12.799L12.6506 6.90334C12.4512 7.13007 12.2439 7.30234 12.0275 7.4195C11.813 7.5373 11.6038 7.6 11.4011 7.6C11.15 7.6 10.9624 7.51641 10.8349 7.35047C10.7074 7.18644 10.6446 6.9388 10.6446 6.60694L10.642 1.9H11.7228L11.7254 6.2225C11.7254 6.3517 11.7489 6.44734 11.7947 6.50687C11.8379 6.56387 11.9144 6.59554 12.0137 6.59554C12.0948 6.59554 12.1955 6.55627 12.3145 6.47774C12.4374 6.40047 12.5486 6.29977 12.6493 6.17944L12.648 1.9H13.7307Z" fill="white"/>
<path d="M16.6724 10.4487C16.492 9.82616 15.9604 9.33533 15.285 9.16876C14.0616 8.86666 8.5 8.86666 8.5 8.86666C8.5 8.86666 2.93839 8.86666 1.71504 9.1694C1.04027 9.33596 0.508039 9.82616 0.327577 10.4494C2.72806e-07 11.578 0 13.9333 0 13.9333C0 13.9333 2.72806e-07 16.2887 0.327577 17.4179C0.508039 18.0405 1.03962 18.5313 1.71504 18.6979C2.93839 19 8.5 19 8.5 19C8.5 19 14.061 19 15.285 18.6973C15.9597 18.5307 16.492 18.0405 16.6724 17.4173C17 16.2887 17 13.9333 17 13.9333C17 13.9333 17 11.578 16.6724 10.4487Z" fill="white"/>
<path d="M3.48695 17.7334H2.39764V11.1815H1.30768V10.1334H4.57691V11.1815H3.48695V17.7334ZM7.84614 17.7334H6.86537L6.75618 17.0164C6.32595 17.4667 5.81399 17.7334 5.4158 17.7334C5.0673 17.7334 4.8221 17.5871 4.7018 17.3198C4.63118 17.1526 4.57691 16.9018 4.57691 16.525V11.7167H5.66687V16.6295C5.69433 16.7815 5.80876 16.8385 5.94999 16.8385C6.16772 16.8385 6.51687 16.6086 6.75618 16.3046V11.7167H7.84614V17.7334ZM15.6923 14.9866V13.276C15.6923 12.7839 15.5668 12.4286 15.3438 12.198C15.0443 11.8839 14.6135 11.7167 14.074 11.7167C13.5235 11.7167 13.0985 11.8839 12.7879 12.198C12.5538 12.4279 12.4231 12.8048 12.4231 13.2969V16.2058C12.4231 16.6922 12.5702 17.0373 12.799 17.2628C13.1096 17.5763 13.5346 17.7334 14.1015 17.7334C14.6625 17.7334 15.1038 17.5712 15.3981 17.2362C15.5288 17.0899 15.6158 16.9221 15.6544 16.739C15.6596 16.6554 15.6923 16.4306 15.6923 16.164H14.6023V16.5826C14.6023 16.8233 14.3571 17.0221 14.0577 17.0221C13.7582 17.0221 13.513 16.8233 13.513 16.5826V14.9866H15.6923ZM13.513 12.915C13.513 12.6692 13.7582 12.4754 14.0577 12.4754C14.3571 12.4754 14.6023 12.6692 14.6023 12.915V14.2595H13.5124L13.513 12.915ZM11.6273 12.345C11.4913 11.9358 11.1585 11.711 10.7446 11.7053C10.2163 11.7002 9.99795 11.9675 9.5893 12.4286V10.1334H8.49999V17.7334H9.48076L9.58995 17.0785C9.93322 17.487 10.3798 17.7334 10.7446 17.7334C11.1585 17.7334 11.5129 17.5237 11.6489 17.1146C11.7143 16.8942 11.7633 16.6903 11.7686 16.2286V13.4774C11.7692 12.9587 11.6986 12.5654 11.6273 12.345ZM10.6793 16.093C10.6793 16.6434 10.5485 16.8321 10.2543 16.8321C10.0856 16.8321 9.76388 16.7219 9.5893 16.5541V12.953C9.76388 12.7851 10.0849 12.623 10.2543 12.623C10.5485 12.623 10.6793 12.7959 10.6793 13.3463V16.093Z" fill="#233249"/>
</svg>
